<?xml version="1.0" encoding="UTF-8"?>
<svg xmlns="http://www.w3.org/2000/svg" xmlns:xlink="http://www.w3.org/1999/xlink" width="36pt" height="38pt" viewBox="0 0 36 38" version="1.1">
<g id="surface1">
<path style=" stroke:none;fill-rule:nonzero;fill:rgb(0%,0%,0%);fill-opacity:1;" d="M 19.582031 5.734375 C 19.523438 5.792969 19.527344 5.914062 19.589844 5.957031 C 19.660156 6.003906 19.808594 6 19.863281 5.949219 C 19.925781 5.886719 19.921875 5.769531 19.859375 5.726562 C 19.789062 5.675781 19.636719 5.683594 19.582031 5.734375 Z M 19.582031 5.734375 "/>
<path style=" stroke:none;fill-rule:nonzero;fill:rgb(0%,0%,0%);fill-opacity:1;" d="M 15.410156 5.769531 C 15.230469 5.835938 15.242188 6.074219 15.425781 6.074219 C 15.515625 6.074219 15.628906 6.015625 15.664062 5.949219 C 15.691406 5.902344 15.664062 5.800781 15.617188 5.773438 C 15.585938 5.753906 15.457031 5.753906 15.410156 5.769531 Z M 15.410156 5.769531 "/>
<path style=" stroke:none;fill-rule:nonzero;fill:rgb(0%,0%,0%);fill-opacity:1;" d="M 20.148438 5.820312 C 20.113281 5.851562 20.101562 5.886719 20.101562 5.949219 C 20.101562 6.027344 20.105469 6.039062 20.179688 6.066406 C 20.328125 6.128906 20.464844 6.0625 20.464844 5.925781 C 20.464844 5.847656 20.398438 5.796875 20.289062 5.785156 C 20.214844 5.777344 20.1875 5.785156 20.148438 5.820312 Z M 20.148438 5.820312 "/>
<path style=" stroke:none;fill-rule:nonzero;fill:rgb(0%,0%,0%);fill-opacity:1;" d="M 17.679688 5.984375 C 17.621094 5.988281 17.519531 5.996094 17.460938 6.003906 C 17.351562 6.015625 17.347656 6.019531 17.347656 6.082031 C 17.347656 6.125 17.359375 6.144531 17.390625 6.15625 C 17.414062 6.160156 17.433594 6.171875 17.433594 6.179688 C 17.433594 6.195312 17.257812 6.417969 17.105469 6.59375 C 16.960938 6.761719 16.96875 6.769531 16.949219 6.414062 L 16.9375 6.183594 L 16.996094 6.179688 C 17.042969 6.175781 17.058594 6.160156 17.0625 6.101562 L 17.066406 6.035156 L 16.910156 6.035156 C 16.824219 6.039062 16.679688 6.042969 16.59375 6.050781 L 16.429688 6.066406 L 16.429688 6.128906 C 16.429688 6.1875 16.4375 6.191406 16.511719 6.199219 L 16.589844 6.207031 L 16.601562 6.347656 C 16.625 6.59375 16.65625 7.125 16.65625 7.261719 L 16.65625 7.394531 L 16.589844 7.402344 C 16.527344 7.410156 16.515625 7.414062 16.515625 7.472656 L 16.515625 7.535156 L 16.742188 7.53125 C 16.867188 7.527344 17.011719 7.519531 17.0625 7.511719 C 17.152344 7.503906 17.152344 7.5 17.148438 7.433594 C 17.144531 7.375 17.132812 7.367188 17.085938 7.367188 C 17.019531 7.367188 17.003906 7.332031 17.003906 7.164062 C 17 7.042969 17.007812 7.019531 17.078125 6.925781 C 17.121094 6.867188 17.164062 6.828125 17.171875 6.835938 C 17.183594 6.847656 17.253906 6.96875 17.335938 7.109375 C 17.546875 7.480469 17.550781 7.484375 17.765625 7.484375 C 17.902344 7.484375 17.953125 7.476562 17.976562 7.449219 C 18.035156 7.394531 18.015625 7.328125 17.9375 7.304688 C 17.867188 7.285156 17.710938 7.113281 17.523438 6.851562 L 17.347656 6.613281 L 17.550781 6.382812 C 17.671875 6.246094 17.78125 6.140625 17.820312 6.128906 C 17.902344 6.097656 17.910156 6.089844 17.890625 6.023438 C 17.882812 5.984375 17.867188 5.96875 17.832031 5.972656 C 17.808594 5.976562 17.738281 5.980469 17.679688 5.984375 Z M 17.679688 5.984375 "/>
<path style=" stroke:none;fill-rule:nonzero;fill:rgb(0%,0%,0%);fill-opacity:1;" d="M 19.21875 6.097656 C 19.21875 6.144531 19.230469 6.167969 19.261719 6.175781 C 19.316406 6.191406 19.316406 6.207031 19.238281 6.675781 C 19.15625 7.140625 19.152344 7.320312 19.210938 7.417969 C 19.261719 7.503906 19.417969 7.578125 19.613281 7.613281 C 19.898438 7.660156 20.117188 7.59375 20.226562 7.421875 C 20.308594 7.292969 20.328125 7.230469 20.40625 6.769531 L 20.476562 6.386719 L 20.539062 6.390625 C 20.574219 6.394531 20.609375 6.386719 20.617188 6.371094 C 20.640625 6.339844 20.644531 6.246094 20.625 6.246094 C 20.617188 6.246094 20.496094 6.226562 20.355469 6.203125 C 20.214844 6.179688 20.089844 6.164062 20.078125 6.171875 C 20.066406 6.179688 20.058594 6.210938 20.058594 6.25 C 20.058594 6.292969 20.066406 6.3125 20.097656 6.3125 C 20.1875 6.3125 20.1875 6.328125 20.109375 6.773438 C 20.039062 7.210938 19.992188 7.351562 19.910156 7.398438 C 19.84375 7.433594 19.707031 7.421875 19.632812 7.375 C 19.496094 7.296875 19.496094 7.164062 19.625 6.460938 C 19.660156 6.257812 19.660156 6.257812 19.726562 6.25 C 19.800781 6.246094 19.839844 6.167969 19.792969 6.128906 C 19.765625 6.105469 19.378906 6.035156 19.273438 6.035156 C 19.226562 6.035156 19.21875 6.042969 19.21875 6.097656 Z M 19.21875 6.097656 "/>
<path style=" stroke:none;fill-rule:nonzero;fill:rgb(0%,0%,0%);fill-opacity:1;" d="M 15.507812 6.234375 C 15.367188 6.265625 15.242188 6.296875 15.230469 6.308594 C 15.214844 6.324219 15.214844 6.347656 15.234375 6.386719 C 15.257812 6.433594 15.265625 6.4375 15.332031 6.429688 C 15.394531 6.414062 15.40625 6.417969 15.414062 6.464844 C 15.4375 6.550781 15.625 7.535156 15.625 7.5625 C 15.625 7.578125 15.605469 7.589844 15.582031 7.589844 C 15.480469 7.589844 15.449219 7.632812 15.496094 7.714844 C 15.515625 7.75 15.53125 7.75 15.816406 7.695312 C 15.984375 7.664062 16.132812 7.628906 16.144531 7.617188 C 16.164062 7.597656 16.164062 7.578125 16.144531 7.539062 C 16.125 7.492188 16.109375 7.488281 16.046875 7.5 L 15.972656 7.507812 L 15.949219 7.394531 C 15.851562 6.925781 15.753906 6.363281 15.769531 6.351562 C 15.777344 6.34375 15.808594 6.332031 15.839844 6.328125 C 15.882812 6.324219 15.894531 6.308594 15.894531 6.257812 C 15.894531 6.203125 15.882812 6.191406 15.828125 6.1875 C 15.792969 6.1875 15.648438 6.207031 15.507812 6.234375 Z M 15.507812 6.234375 "/>
<path style=" stroke:none;fill-rule:nonzero;fill:rgb(0%,0%,0%);fill-opacity:1;" d="M 21.183594 6.390625 C 21.136719 6.40625 21.148438 6.519531 21.199219 6.535156 C 21.222656 6.539062 21.242188 6.5625 21.242188 6.582031 C 21.242188 6.597656 21.160156 6.851562 21.066406 7.144531 L 20.886719 7.675781 L 20.804688 7.664062 C 20.734375 7.648438 20.722656 7.652344 20.710938 7.707031 C 20.707031 7.738281 20.707031 7.769531 20.714844 7.78125 C 20.738281 7.800781 21.160156 7.929688 21.203125 7.929688 C 21.238281 7.929688 21.261719 7.886719 21.261719 7.832031 C 21.261719 7.816406 21.238281 7.796875 21.207031 7.789062 C 21.179688 7.785156 21.15625 7.769531 21.15625 7.765625 C 21.15625 7.757812 21.214844 7.570312 21.289062 7.347656 L 21.417969 6.941406 L 21.449219 7.171875 C 21.480469 7.417969 21.539062 7.730469 21.601562 7.953125 L 21.640625 8.089844 L 21.796875 8.144531 C 21.914062 8.183594 21.960938 8.191406 21.988281 8.175781 C 22.011719 8.160156 22.097656 7.9375 22.226562 7.550781 L 22.425781 6.945312 L 22.5 6.957031 C 22.558594 6.96875 22.578125 6.964844 22.59375 6.929688 C 22.640625 6.847656 22.621094 6.832031 22.359375 6.75 C 22.214844 6.707031 22.089844 6.675781 22.082031 6.683594 C 22.046875 6.703125 22.054688 6.820312 22.085938 6.820312 C 22.175781 6.824219 22.171875 6.851562 22.039062 7.261719 C 21.964844 7.484375 21.898438 7.679688 21.894531 7.695312 C 21.886719 7.714844 21.867188 7.632812 21.855469 7.511719 C 21.839844 7.394531 21.796875 7.125 21.757812 6.914062 L 21.6875 6.53125 L 21.535156 6.480469 C 21.269531 6.394531 21.207031 6.382812 21.183594 6.390625 Z M 21.183594 6.390625 "/>
<path style=" stroke:none;fill-rule:nonzero;fill:rgb(0%,0%,0%);fill-opacity:1;" d="M 14.363281 6.515625 C 14.246094 6.558594 14.140625 6.601562 14.128906 6.609375 C 14.117188 6.621094 14.121094 6.652344 14.136719 6.683594 C 14.160156 6.734375 14.171875 6.738281 14.226562 6.726562 C 14.285156 6.714844 14.292969 6.71875 14.324219 6.792969 C 14.375 6.910156 14.589844 7.527344 14.589844 7.550781 C 14.589844 7.5625 14.535156 7.511719 14.46875 7.4375 C 14.398438 7.367188 14.203125 7.179688 14.03125 7.023438 L 13.71875 6.742188 L 13.570312 6.792969 C 13.261719 6.894531 13.234375 6.90625 13.234375 6.957031 C 13.234375 7.027344 13.273438 7.058594 13.335938 7.035156 C 13.378906 7.019531 13.386719 7.023438 13.429688 7.136719 C 13.503906 7.332031 13.773438 8.105469 13.773438 8.121094 C 13.773438 8.132812 13.746094 8.152344 13.707031 8.164062 C 13.636719 8.1875 13.628906 8.222656 13.675781 8.285156 C 13.703125 8.324219 13.707031 8.324219 13.886719 8.261719 C 14.171875 8.164062 14.203125 8.152344 14.203125 8.105469 C 14.203125 8.046875 14.152344 8.011719 14.09375 8.027344 C 14.042969 8.039062 14.035156 8.023438 13.90625 7.660156 C 13.832031 7.453125 13.773438 7.273438 13.773438 7.269531 C 13.773438 7.261719 13.867188 7.347656 13.984375 7.460938 C 14.203125 7.671875 14.523438 7.941406 14.605469 7.980469 C 14.667969 8.007812 14.894531 7.945312 14.949219 7.886719 C 14.988281 7.839844 14.996094 7.863281 14.738281 7.132812 C 14.617188 6.789062 14.570312 6.621094 14.585938 6.613281 C 14.601562 6.609375 14.632812 6.589844 14.65625 6.570312 C 14.695312 6.535156 14.699219 6.523438 14.679688 6.484375 C 14.648438 6.421875 14.621094 6.429688 14.363281 6.515625 Z M 14.363281 6.515625 "/>
<path style=" stroke:none;fill-rule:nonzero;fill:rgb(0%,0%,0%);fill-opacity:1;" d="M 23.46875 6.789062 C 23.394531 6.859375 23.398438 6.933594 23.476562 7 C 23.644531 7.136719 23.859375 7.058594 23.816406 6.875 C 23.800781 6.816406 23.71875 6.769531 23.605469 6.746094 C 23.539062 6.734375 23.515625 6.742188 23.46875 6.789062 Z M 23.46875 6.789062 "/>
<path style=" stroke:none;fill-rule:nonzero;fill:rgb(0%,0%,0%);fill-opacity:1;" d="M 23.125 7.132812 C 23.117188 7.148438 23.109375 7.175781 23.105469 7.191406 C 23.097656 7.210938 23.121094 7.234375 23.160156 7.25 C 23.191406 7.261719 23.222656 7.28125 23.222656 7.292969 C 23.222656 7.304688 23.105469 7.546875 22.960938 7.828125 C 22.746094 8.253906 22.695312 8.339844 22.664062 8.324219 C 22.566406 8.28125 22.535156 8.285156 22.511719 8.347656 C 22.496094 8.378906 22.492188 8.410156 22.492188 8.410156 C 22.496094 8.414062 22.628906 8.480469 22.785156 8.558594 C 23.015625 8.671875 23.082031 8.695312 23.105469 8.675781 C 23.152344 8.632812 23.140625 8.558594 23.082031 8.53125 C 23.050781 8.519531 23.027344 8.496094 23.027344 8.484375 C 23.027344 8.472656 23.144531 8.234375 23.285156 7.953125 L 23.542969 7.441406 L 23.609375 7.472656 C 23.6875 7.511719 23.738281 7.488281 23.738281 7.410156 C 23.738281 7.375 23.6875 7.339844 23.46875 7.230469 C 23.183594 7.09375 23.140625 7.082031 23.125 7.132812 Z M 23.125 7.132812 "/>
<path style=" stroke:none;fill-rule:nonzero;fill:rgb(0%,0%,0%);fill-opacity:1;" d="M 12.445312 7.277344 C 12.335938 7.339844 12.242188 7.394531 12.234375 7.402344 C 12.222656 7.410156 12.226562 7.441406 12.234375 7.476562 C 12.246094 7.523438 12.257812 7.53125 12.308594 7.519531 C 12.359375 7.507812 12.367188 7.511719 12.363281 7.542969 C 12.300781 7.832031 12.195312 8.230469 12.179688 8.214844 C 12.171875 8.207031 12.109375 8.09375 12.042969 7.972656 L 11.921875 7.746094 L 11.96875 7.714844 C 12.003906 7.691406 12.011719 7.671875 12 7.625 C 11.992188 7.59375 11.972656 7.570312 11.949219 7.570312 C 11.898438 7.570312 11.40625 7.84375 11.40625 7.875 C 11.40625 7.890625 11.417969 7.921875 11.4375 7.941406 C 11.460938 7.976562 11.472656 7.976562 11.53125 7.953125 C 11.574219 7.9375 11.609375 7.933594 11.621094 7.945312 C 11.644531 7.964844 11.734375 8.128906 11.996094 8.601562 L 12.183594 8.9375 L 12.117188 8.996094 L 12.046875 9.050781 L 12.132812 9.152344 L 12.359375 9.03125 C 12.484375 8.964844 12.609375 8.890625 12.636719 8.871094 C 12.683594 8.832031 12.683594 8.832031 12.648438 8.773438 C 12.617188 8.730469 12.601562 8.722656 12.566406 8.742188 C 12.5 8.777344 12.488281 8.769531 12.410156 8.625 C 12.332031 8.492188 12.332031 8.488281 12.355469 8.359375 C 12.371094 8.289062 12.390625 8.230469 12.394531 8.230469 C 12.40625 8.230469 12.53125 8.3125 12.679688 8.414062 C 13.011719 8.644531 13.03125 8.652344 13.152344 8.605469 C 13.277344 8.558594 13.382812 8.492188 13.402344 8.449219 C 13.40625 8.433594 13.402344 8.394531 13.390625 8.367188 C 13.371094 8.324219 13.355469 8.320312 13.292969 8.328125 C 13.207031 8.34375 13.117188 8.304688 12.746094 8.109375 C 12.601562 8.027344 12.480469 7.953125 12.480469 7.933594 C 12.480469 7.921875 12.515625 7.785156 12.558594 7.636719 C 12.621094 7.425781 12.648438 7.355469 12.691406 7.320312 C 12.742188 7.277344 12.746094 7.265625 12.722656 7.21875 C 12.710938 7.1875 12.6875 7.164062 12.671875 7.164062 C 12.65625 7.164062 12.554688 7.214844 12.445312 7.277344 Z M 12.445312 7.277344 "/>
<path style=" stroke:none;fill-rule:nonzero;fill:rgb(0%,0%,0%);fill-opacity:1;" d="M 24.121094 7.644531 C 24.097656 7.6875 24.101562 7.699219 24.136719 7.726562 C 24.179688 7.757812 24.183594 7.753906 23.90625 8.789062 C 23.804688 9.171875 23.800781 9.160156 24.003906 9.265625 C 24.085938 9.304688 24.132812 9.320312 24.175781 9.308594 C 24.238281 9.292969 24.480469 9.113281 24.980469 8.722656 C 25.257812 8.503906 25.285156 8.484375 25.328125 8.511719 C 25.367188 8.535156 25.378906 8.53125 25.40625 8.496094 C 25.425781 8.472656 25.4375 8.441406 25.4375 8.425781 C 25.4375 8.402344 25.09375 8.160156 25.019531 8.132812 C 25 8.125 24.972656 8.144531 24.953125 8.175781 C 24.914062 8.230469 24.914062 8.234375 24.960938 8.269531 C 25.007812 8.304688 25.007812 8.304688 24.832031 8.476562 C 24.535156 8.765625 24.222656 9.023438 24.214844 8.992188 C 24.207031 8.953125 24.300781 8.632812 24.429688 8.234375 C 24.511719 7.984375 24.515625 7.976562 24.558594 8 C 24.59375 8.023438 24.605469 8.019531 24.644531 7.976562 C 24.664062 7.949219 24.683594 7.921875 24.683594 7.910156 C 24.683594 7.890625 24.214844 7.589844 24.179688 7.589844 C 24.160156 7.589844 24.132812 7.613281 24.121094 7.644531 Z M 24.121094 7.644531 "/>
<path style=" stroke:none;fill-rule:nonzero;fill:rgb(0%,0%,0%);fill-opacity:1;" d="M 10.445312 8.527344 C 10.210938 8.703125 10.007812 8.863281 9.996094 8.878906 C 9.980469 8.902344 9.988281 8.925781 10.019531 8.957031 C 10.066406 9 10.070312 9 10.125 8.964844 C 10.175781 8.929688 10.183594 8.929688 10.207031 8.960938 C 10.445312 9.257812 10.890625 9.851562 10.890625 9.867188 C 10.890625 9.882812 10.871094 9.902344 10.847656 9.914062 C 10.824219 9.925781 10.804688 9.949219 10.804688 9.964844 C 10.804688 10.007812 10.882812 10.070312 10.914062 10.050781 C 10.980469 10.007812 11.679688 9.476562 11.746094 9.417969 C 11.78125 9.378906 11.816406 9.335938 11.816406 9.316406 C 11.816406 9.277344 11.714844 9.167969 11.675781 9.167969 C 11.664062 9.167969 11.605469 9.222656 11.546875 9.285156 C 11.441406 9.410156 11.203125 9.613281 11.167969 9.613281 C 11.148438 9.613281 10.867188 9.261719 10.867188 9.234375 C 10.867188 9.226562 10.960938 9.152344 11.074219 9.070312 C 11.183594 8.988281 11.277344 8.910156 11.285156 8.898438 C 11.296875 8.867188 11.222656 8.761719 11.1875 8.761719 C 11.175781 8.761719 11.070312 8.835938 10.953125 8.921875 L 10.742188 9.082031 L 10.609375 8.910156 L 10.480469 8.742188 L 10.59375 8.65625 C 10.65625 8.609375 10.785156 8.535156 10.875 8.492188 C 11.042969 8.417969 11.042969 8.417969 11.03125 8.351562 C 11.015625 8.273438 10.960938 8.207031 10.910156 8.207031 C 10.890625 8.207031 10.679688 8.351562 10.445312 8.527344 Z M 10.445312 8.527344 "/>
<path style=" stroke:none;fill-rule:nonzero;fill:rgb(0%,0%,0%);fill-opacity:1;" d="M 17.582031 8.53125 C 15.867188 8.613281 14.199219 9.15625 12.722656 10.113281 L 12.453125 10.285156 L 12.503906 10.324219 C 13.160156 10.808594 16.433594 13.144531 16.445312 13.136719 C 16.457031 13.125 17.949219 8.585938 17.957031 8.539062 C 17.960938 8.511719 17.941406 8.511719 17.582031 8.53125 Z M 17.582031 8.53125 "/>
<path style=" stroke:none;fill-rule:nonzero;fill:rgb(0%,0%,0%);fill-opacity:1;" d="M 18.214844 8.542969 C 18.230469 8.605469 19.71875 13.144531 19.726562 13.148438 C 19.726562 13.152344 20.628906 12.511719 21.722656 11.722656 L 23.714844 10.289062 L 23.628906 10.226562 C 23.214844 9.925781 22.261719 9.421875 21.671875 9.195312 C 20.675781 8.808594 19.609375 8.574219 18.671875 8.539062 C 18.519531 8.53125 18.347656 8.519531 18.292969 8.515625 C 18.214844 8.507812 18.203125 8.511719 18.214844 8.542969 Z M 18.214844 8.542969 "/>
<path style=" stroke:none;fill-rule:nonzero;fill:rgb(0%,0%,0%);fill-opacity:1;" d="M 25.785156 8.765625 C 25.75 8.804688 25.753906 8.835938 25.804688 8.878906 C 25.84375 8.914062 25.84375 8.921875 25.691406 9.089844 C 25.328125 9.496094 25.0625 9.785156 25.042969 9.785156 C 25.03125 9.785156 25.003906 9.769531 24.980469 9.75 C 24.945312 9.71875 24.941406 9.71875 24.898438 9.753906 C 24.875 9.773438 24.855469 9.804688 24.855469 9.816406 C 24.855469 9.839844 25.496094 10.421875 25.640625 10.527344 C 25.722656 10.589844 25.789062 10.585938 25.84375 10.519531 C 25.914062 10.433594 25.902344 10.398438 25.777344 10.335938 C 25.714844 10.304688 25.585938 10.21875 25.496094 10.148438 L 25.328125 10.015625 L 25.441406 9.886719 C 25.503906 9.816406 25.578125 9.730469 25.609375 9.695312 L 25.664062 9.628906 L 25.792969 9.746094 C 25.863281 9.808594 25.957031 9.890625 26.003906 9.929688 L 26.085938 10 L 26.140625 9.953125 C 26.167969 9.929688 26.191406 9.894531 26.191406 9.878906 C 26.191406 9.863281 26.144531 9.808594 26.089844 9.757812 C 26.03125 9.707031 25.941406 9.625 25.890625 9.578125 L 25.792969 9.492188 L 25.933594 9.339844 C 26.007812 9.257812 26.078125 9.1875 26.085938 9.1875 C 26.117188 9.1875 26.367188 9.457031 26.433594 9.554688 C 26.507812 9.671875 26.546875 9.679688 26.628906 9.605469 C 26.6875 9.554688 26.699219 9.5 26.667969 9.453125 C 26.632812 9.394531 25.875 8.742188 25.847656 8.742188 C 25.828125 8.742188 25.800781 8.75 25.785156 8.765625 Z M 25.785156 8.765625 "/>
<path style=" stroke:none;fill-rule:nonzero;fill:rgb(0%,0%,0%);fill-opacity:1;" d="M 9.234375 9.585938 C 9.035156 9.777344 8.8125 9.984375 8.734375 10.046875 C 8.582031 10.164062 8.574219 10.179688 8.667969 10.28125 C 8.730469 10.351562 8.785156 10.328125 8.953125 10.148438 L 9.113281 9.976562 L 9.519531 10.363281 C 9.742188 10.574219 9.921875 10.761719 9.921875 10.773438 C 9.921875 10.789062 9.902344 10.820312 9.878906 10.839844 C 9.820312 10.890625 9.824219 10.949219 9.882812 10.980469 C 9.921875 11.003906 9.949219 10.984375 10.171875 10.761719 C 10.421875 10.511719 10.445312 10.464844 10.347656 10.433594 C 10.316406 10.425781 10.285156 10.4375 10.25 10.472656 L 10.191406 10.53125 L 9.769531 10.125 L 9.351562 9.722656 L 9.449219 9.636719 C 9.5 9.589844 9.597656 9.527344 9.65625 9.492188 C 9.777344 9.429688 9.792969 9.398438 9.734375 9.316406 C 9.691406 9.253906 9.664062 9.230469 9.621094 9.230469 C 9.601562 9.230469 9.429688 9.390625 9.234375 9.585938 Z M 9.234375 9.585938 "/>
<path style=" stroke:none;fill-rule:nonzero;fill:rgb(0%,0%,0%);fill-opacity:1;" d="M 17.5625 11.679688 C 17.242188 12.660156 16.976562 13.480469 16.972656 13.5 C 16.972656 13.519531 17.152344 13.664062 17.488281 13.910156 C 17.777344 14.113281 18.03125 14.292969 18.050781 14.308594 C 18.089844 14.332031 18.15625 14.289062 18.640625 13.941406 C 18.941406 13.726562 19.203125 13.539062 19.222656 13.519531 C 19.253906 13.488281 19.21875 13.363281 18.710938 11.695312 C 18.410156 10.714844 18.160156 9.90625 18.15625 9.902344 C 18.152344 9.898438 17.886719 10.695312 17.5625 11.679688 Z M 17.5625 11.679688 "/>
<path style=" stroke:none;fill-rule:nonzero;fill:rgb(0%,0%,0%);fill-opacity:1;" d="M 27.066406 9.953125 C 27.019531 10.003906 27.023438 10.027344 27.074219 10.074219 L 27.121094 10.117188 L 27.070312 10.160156 C 27.039062 10.183594 26.835938 10.351562 26.609375 10.539062 L 26.207031 10.871094 L 26.144531 10.816406 C 26.085938 10.761719 26.082031 10.761719 26.039062 10.796875 C 26.015625 10.820312 25.996094 10.847656 25.996094 10.859375 C 25.996094 10.878906 26.1875 11.113281 26.332031 11.273438 C 26.394531 11.339844 26.425781 11.363281 26.453125 11.351562 C 26.515625 11.328125 26.523438 11.257812 26.46875 11.203125 C 26.441406 11.171875 26.421875 11.148438 26.429688 11.144531 C 26.433594 11.140625 26.507812 11.078125 26.589844 11.003906 C 26.675781 10.933594 26.753906 10.871094 26.765625 10.871094 C 26.804688 10.871094 26.878906 10.992188 26.878906 11.050781 C 26.878906 11.113281 26.8125 11.257812 26.707031 11.421875 C 26.671875 11.476562 26.644531 11.550781 26.644531 11.585938 C 26.644531 11.667969 26.78125 11.871094 26.867188 11.917969 C 26.917969 11.941406 26.929688 11.941406 26.96875 11.902344 C 27.003906 11.867188 27.007812 11.851562 26.988281 11.816406 C 26.953125 11.746094 26.960938 11.691406 27.039062 11.476562 C 27.082031 11.371094 27.117188 11.246094 27.117188 11.203125 C 27.117188 11.117188 27.117188 11.117188 27.199219 11.160156 C 27.371094 11.246094 27.558594 11.207031 27.691406 11.058594 C 27.808594 10.925781 27.804688 10.769531 27.679688 10.574219 C 27.617188 10.472656 27.191406 9.957031 27.152344 9.929688 C 27.117188 9.90625 27.105469 9.910156 27.066406 9.953125 Z M 27.363281 10.511719 C 27.46875 10.636719 27.460938 10.75 27.339844 10.867188 C 27.230469 10.96875 27.144531 10.960938 27.015625 10.847656 C 26.964844 10.800781 26.925781 10.75 26.925781 10.742188 C 26.9375 10.710938 27.253906 10.449219 27.28125 10.449219 C 27.292969 10.445312 27.332031 10.476562 27.363281 10.511719 Z M 27.363281 10.511719 "/>
<path style=" stroke:none;fill-rule:nonzero;fill:rgb(0%,0%,0%);fill-opacity:1;" d="M 11.953125 10.667969 C 10.875 11.527344 9.980469 12.625 9.355469 13.851562 C 9.109375 14.335938 8.804688 15.070312 8.839844 15.101562 C 8.855469 15.121094 13.773438 15.121094 13.773438 15.101562 C 13.773438 15.074219 12.261719 10.480469 12.246094 10.460938 C 12.238281 10.453125 12.109375 10.546875 11.953125 10.667969 Z M 11.953125 10.667969 "/>
<path style=" stroke:none;fill-rule:nonzero;fill:rgb(0%,0%,0%);fill-opacity:1;" d="M 23.925781 10.460938 C 23.910156 10.484375 22.402344 15.082031 22.402344 15.101562 C 22.402344 15.109375 23.511719 15.117188 24.867188 15.117188 C 27.058594 15.117188 27.332031 15.109375 27.332031 15.082031 C 27.332031 15.0625 27.289062 14.9375 27.238281 14.800781 C 26.648438 13.230469 25.570312 11.746094 24.261719 10.703125 C 23.914062 10.425781 23.9375 10.441406 23.925781 10.460938 Z M 23.925781 10.460938 "/>
<path style=" stroke:none;fill-rule:nonzero;fill:rgb(0%,0%,0%);fill-opacity:1;" d="M 7.84375 11.230469 C 7.792969 11.261719 7.273438 12.058594 7.273438 12.101562 C 7.273438 12.160156 7.339844 12.214844 7.425781 12.230469 L 7.5 12.238281 L 7.550781 12.082031 C 7.597656 11.929688 7.742188 11.660156 7.773438 11.660156 C 7.796875 11.660156 7.910156 11.890625 8.136719 12.394531 C 8.363281 12.902344 8.378906 12.917969 8.445312 12.917969 C 8.492188 12.917969 8.539062 12.859375 8.753906 12.539062 C 9.054688 12.097656 9.089844 12.035156 9.070312 11.980469 C 9.054688 11.929688 8.945312 11.871094 8.882812 11.878906 C 8.847656 11.882812 8.832031 11.914062 8.808594 12.003906 C 8.777344 12.128906 8.609375 12.449219 8.574219 12.453125 C 8.550781 12.460938 8.433594 12.226562 8.160156 11.65625 C 7.96875 11.261719 7.914062 11.183594 7.84375 11.230469 Z M 7.84375 11.230469 "/>
<path style=" stroke:none;fill-rule:nonzero;fill:rgb(0%,0%,0%);fill-opacity:1;" d="M 13.261719 11.515625 C 13.273438 11.550781 14.265625 14.570312 14.375 14.910156 L 14.441406 15.117188 L 15.125 15.109375 L 15.804688 15.105469 L 16.039062 14.394531 C 16.167969 14.003906 16.269531 13.671875 16.261719 13.65625 C 16.253906 13.632812 13.320312 11.515625 13.273438 11.492188 C 13.257812 11.488281 13.253906 11.5 13.261719 11.515625 Z M 13.261719 11.515625 "/>
<path style=" stroke:none;fill-rule:nonzero;fill:rgb(0%,0%,0%);fill-opacity:1;" d="M 21.5 12.617188 C 20.117188 13.613281 19.9375 13.75 19.945312 13.796875 C 19.949219 13.824219 20.042969 14.128906 20.160156 14.476562 L 20.371094 15.105469 L 21.082031 15.109375 C 21.636719 15.117188 21.796875 15.109375 21.816406 15.089844 C 21.828125 15.074219 22.074219 14.375 22.371094 13.539062 C 22.664062 12.699219 22.945312 11.894531 22.996094 11.75 C 23.046875 11.609375 23.082031 11.492188 23.074219 11.492188 C 23.066406 11.492188 22.359375 12 21.5 12.617188 Z M 21.5 12.617188 "/>
<path style=" stroke:none;fill-rule:nonzero;fill:rgb(0%,0%,0%);fill-opacity:1;" d="M 28.101562 11.621094 C 28 11.648438 27.894531 11.726562 27.847656 11.804688 C 27.785156 11.902344 27.78125 12.078125 27.835938 12.273438 C 27.855469 12.34375 27.871094 12.449219 27.871094 12.511719 C 27.871094 12.605469 27.859375 12.625 27.800781 12.671875 C 27.765625 12.703125 27.71875 12.726562 27.699219 12.726562 C 27.601562 12.726562 27.433594 12.453125 27.40625 12.261719 C 27.382812 12.097656 27.378906 12.089844 27.304688 12.089844 C 27.117188 12.089844 27.089844 12.21875 27.21875 12.46875 C 27.480469 12.96875 27.75 13.113281 28.058594 12.910156 C 28.230469 12.796875 28.253906 12.644531 28.171875 12.261719 C 28.117188 12.023438 28.128906 11.960938 28.238281 11.90625 C 28.328125 11.859375 28.394531 11.882812 28.460938 11.976562 C 28.523438 12.066406 28.601562 12.296875 28.601562 12.390625 C 28.601562 12.445312 28.609375 12.449219 28.675781 12.449219 C 28.761719 12.449219 28.859375 12.375 28.859375 12.304688 C 28.859375 12.242188 28.679688 11.894531 28.59375 11.796875 C 28.457031 11.644531 28.261719 11.570312 28.101562 11.621094 Z M 28.101562 11.621094 "/>
<path style=" stroke:none;fill-rule:nonzero;fill:rgb(0%,0%,0%);fill-opacity:1;" d="M 6.832031 12.898438 C 6.722656 13.121094 6.695312 13.1875 6.714844 13.210938 C 6.757812 13.257812 6.832031 13.246094 6.859375 13.1875 C 6.875 13.15625 6.894531 13.132812 6.90625 13.132812 C 6.917969 13.132812 7.160156 13.246094 7.445312 13.390625 C 7.910156 13.621094 7.960938 13.652344 7.941406 13.6875 C 7.90625 13.753906 7.914062 13.816406 7.96875 13.835938 C 7.996094 13.84375 8.023438 13.847656 8.035156 13.84375 C 8.0625 13.824219 8.308594 13.328125 8.308594 13.28125 C 8.308594 13.238281 8.199219 13.191406 8.183594 13.234375 C 8.179688 13.246094 8.164062 13.273438 8.144531 13.292969 C 8.117188 13.332031 8.09375 13.324219 7.585938 13.074219 C 7.140625 12.855469 7.058594 12.804688 7.070312 12.773438 C 7.082031 12.753906 7.085938 12.714844 7.089844 12.683594 C 7.089844 12.640625 7.082031 12.628906 7.03125 12.625 C 6.976562 12.617188 6.964844 12.632812 6.832031 12.898438 Z M 6.832031 12.898438 "/>
<path style=" stroke:none;fill-rule:nonzero;fill:rgb(0%,0%,0%);fill-opacity:1;" d="M 29.503906 12.8125 C 29.449219 12.867188 29.453125 12.929688 29.511719 13.035156 C 29.566406 13.136719 29.648438 13.171875 29.730469 13.136719 C 29.839844 13.089844 29.839844 12.929688 29.726562 12.808594 C 29.679688 12.757812 29.558594 12.757812 29.503906 12.8125 Z M 29.503906 12.8125 "/>
<path style=" stroke:none;fill-rule:nonzero;fill:rgb(0%,0%,0%);fill-opacity:1;" d="M 29.085938 12.882812 C 29.046875 12.910156 29.046875 12.941406 29.082031 13.027344 C 29.097656 13.0625 29 13.113281 28.324219 13.417969 L 28.019531 13.558594 L 27.988281 13.492188 C 27.953125 13.425781 27.890625 13.414062 27.847656 13.464844 C 27.824219 13.492188 27.839844 13.542969 27.953125 13.777344 C 28.023438 13.933594 28.09375 14.0625 28.109375 14.066406 C 28.125 14.070312 28.15625 14.058594 28.179688 14.042969 C 28.214844 14.019531 28.21875 14.003906 28.195312 13.941406 C 28.179688 13.90625 28.171875 13.871094 28.175781 13.867188 C 28.203125 13.847656 29.179688 13.40625 29.214844 13.398438 C 29.246094 13.390625 29.265625 13.402344 29.292969 13.453125 C 29.324219 13.507812 29.339844 13.511719 29.378906 13.496094 C 29.40625 13.488281 29.433594 13.460938 29.433594 13.441406 C 29.441406 13.394531 29.183594 12.871094 29.148438 12.863281 C 29.136719 12.859375 29.109375 12.867188 29.085938 12.882812 Z M 29.085938 12.882812 "/>
<path style=" stroke:none;fill-rule:nonzero;fill:rgb(0%,0%,0%);fill-opacity:1;" d="M 6.566406 13.921875 C 6.453125 13.980469 6.371094 14.078125 6.277344 14.273438 C 6.179688 14.46875 5.996094 14.980469 6.015625 15.007812 C 6.023438 15.019531 6.054688 15.03125 6.089844 15.03125 C 6.140625 15.03125 6.15625 15.019531 6.167969 14.976562 C 6.175781 14.945312 6.183594 14.921875 6.1875 14.921875 C 6.203125 14.921875 7.164062 15.265625 7.242188 15.296875 C 7.300781 15.320312 7.308594 15.332031 7.300781 15.398438 C 7.292969 15.464844 7.296875 15.472656 7.355469 15.484375 C 7.386719 15.492188 7.417969 15.492188 7.417969 15.492188 C 7.449219 15.457031 7.664062 14.773438 7.675781 14.664062 C 7.699219 14.402344 7.597656 14.199219 7.363281 14.050781 C 7.101562 13.886719 6.757812 13.828125 6.566406 13.921875 Z M 7.027344 14.304688 C 7.21875 14.371094 7.363281 14.457031 7.421875 14.539062 C 7.464844 14.601562 7.46875 14.632812 7.460938 14.710938 C 7.441406 14.835938 7.382812 14.910156 7.300781 14.917969 C 7.261719 14.921875 7.070312 14.867188 6.808594 14.773438 C 6.574219 14.691406 6.382812 14.621094 6.375 14.617188 C 6.363281 14.605469 6.417969 14.453125 6.460938 14.386719 C 6.566406 14.234375 6.742188 14.207031 7.027344 14.304688 Z M 7.027344 14.304688 "/>
<path style=" stroke:none;fill-rule:nonzero;fill:rgb(0%,0%,0%);fill-opacity:1;" d="M 29.492188 13.910156 C 29.453125 13.9375 29.453125 13.945312 29.523438 14.140625 C 29.628906 14.425781 29.625 14.40625 29.558594 14.433594 C 29.359375 14.507812 28.546875 14.753906 28.523438 14.746094 C 28.507812 14.738281 28.492188 14.707031 28.484375 14.671875 C 28.472656 14.617188 28.457031 14.605469 28.417969 14.605469 C 28.316406 14.605469 28.316406 14.644531 28.425781 14.980469 C 28.507812 15.242188 28.535156 15.300781 28.570312 15.304688 C 28.640625 15.3125 28.671875 15.257812 28.644531 15.171875 L 28.628906 15.09375 L 29.15625 14.921875 C 29.445312 14.828125 29.699219 14.753906 29.714844 14.753906 C 29.75 14.753906 29.78125 14.886719 29.800781 15.089844 C 29.816406 15.253906 29.816406 15.253906 29.882812 15.261719 C 29.96875 15.269531 30.066406 15.234375 30.066406 15.191406 C 30.066406 15.171875 30.003906 14.964844 29.925781 14.726562 C 29.792969 14.320312 29.742188 14.148438 29.710938 13.957031 C 29.695312 13.882812 29.691406 13.878906 29.613281 13.878906 C 29.570312 13.878906 29.515625 13.890625 29.492188 13.910156 Z M 29.492188 13.910156 "/>
<path style=" stroke:none;fill-rule:nonzero;fill:rgb(0%,0%,0%);fill-opacity:1;" d="M 16.617188 14.566406 C 16.519531 14.863281 16.402344 15.214844 16.359375 15.351562 L 16.277344 15.59375 L 15.445312 15.601562 C 14.988281 15.605469 14.613281 15.613281 14.613281 15.617188 C 14.613281 15.628906 15.097656 17.109375 15.121094 17.175781 C 15.128906 17.1875 14.867188 17.390625 14.542969 17.621094 C 14.222656 17.855469 13.914062 18.074219 13.867188 18.109375 L 13.777344 18.179688 L 14.421875 18.644531 C 14.777344 18.902344 15.082031 19.121094 15.09375 19.128906 C 15.109375 19.136719 15.03125 19.40625 14.863281 19.917969 C 14.722656 20.34375 14.601562 20.703125 14.597656 20.714844 C 14.589844 20.738281 14.765625 20.742188 15.4375 20.742188 L 16.289062 20.742188 L 16.484375 21.34375 C 16.59375 21.679688 16.707031 22.023438 16.738281 22.117188 C 16.765625 22.210938 16.792969 22.292969 16.800781 22.296875 C 16.800781 22.300781 17.105469 22.085938 17.476562 21.820312 C 17.84375 21.554688 18.15625 21.34375 18.171875 21.347656 C 18.183594 21.355469 18.453125 21.546875 18.765625 21.773438 C 19.082031 22 19.339844 22.1875 19.347656 22.183594 C 19.355469 22.179688 19.460938 21.847656 19.582031 21.449219 L 19.808594 20.722656 L 20.644531 20.722656 C 21.136719 20.722656 21.476562 20.714844 21.476562 20.703125 C 21.476562 20.691406 21.367188 20.363281 21.234375 19.96875 L 20.988281 19.257812 L 21.75 18.714844 C 22.167969 18.421875 22.511719 18.171875 22.511719 18.164062 C 22.511719 18.15625 22.191406 17.925781 21.800781 17.652344 L 21.097656 17.152344 L 21.132812 17.046875 C 21.367188 16.382812 21.628906 15.640625 21.628906 15.636719 C 21.628906 15.632812 21.242188 15.628906 20.769531 15.628906 C 19.96875 15.628906 19.910156 15.625 19.898438 15.589844 C 19.890625 15.570312 19.789062 15.234375 19.671875 14.84375 C 19.550781 14.453125 19.453125 14.128906 19.453125 14.121094 C 19.453125 14.09375 19.378906 14.144531 18.808594 14.554688 C 18.484375 14.789062 18.207031 14.984375 18.191406 14.992188 C 18.175781 15.003906 17.90625 14.824219 17.535156 14.554688 C 17.1875 14.304688 16.878906 14.082031 16.847656 14.066406 L 16.792969 14.027344 Z M 16.617188 14.566406 "/>
<path style=" stroke:none;fill-rule:nonzero;fill:rgb(0%,0%,0%);fill-opacity:1;" d="M 8.707031 15.464844 C 8.292969 16.875 8.203125 18.351562 8.445312 19.789062 C 8.53125 20.285156 8.722656 21.050781 8.761719 21.039062 C 8.773438 21.035156 9.667969 20.394531 10.75 19.613281 C 12.519531 18.34375 12.714844 18.195312 12.683594 18.167969 C 12.390625 17.957031 8.773438 15.359375 8.757812 15.355469 C 8.75 15.351562 8.726562 15.398438 8.707031 15.464844 Z M 8.707031 15.464844 "/>
<path style=" stroke:none;fill-rule:nonzero;fill:rgb(0%,0%,0%);fill-opacity:1;" d="M 25.4375 16.769531 C 24.355469 17.546875 23.46875 18.191406 23.472656 18.199219 C 23.476562 18.214844 27.371094 21.019531 27.410156 21.035156 C 27.421875 21.039062 27.4375 21.023438 27.445312 20.996094 C 27.453125 20.96875 27.5 20.773438 27.558594 20.5625 C 27.980469 18.9375 27.960938 17.25 27.5 15.589844 C 27.460938 15.457031 27.429688 15.351562 27.417969 15.351562 C 27.414062 15.351562 26.519531 15.988281 25.4375 16.769531 Z M 25.4375 16.769531 "/>
<path style=" stroke:none;fill-rule:nonzero;fill:rgb(0%,0%,0%);fill-opacity:1;" d="M 10.242188 15.636719 C 10.339844 15.726562 13.25 17.800781 13.273438 17.792969 C 13.285156 17.785156 13.546875 17.605469 13.847656 17.382812 C 14.203125 17.128906 14.394531 16.976562 14.390625 16.960938 C 14.382812 16.941406 14.28125 16.632812 14.160156 16.269531 L 13.941406 15.605469 L 12.078125 15.605469 C 10.472656 15.605469 10.21875 15.609375 10.242188 15.636719 Z M 10.242188 15.636719 "/>
<path style=" stroke:none;fill-rule:nonzero;fill:rgb(0%,0%,0%);fill-opacity:1;" d="M 22.640625 15.628906 L 22.222656 15.636719 L 22 16.308594 C 21.828125 16.832031 21.785156 16.988281 21.808594 17.007812 C 21.902344 17.101562 22.972656 17.84375 22.992188 17.828125 C 23.027344 17.808594 26.066406 15.644531 26.09375 15.621094 C 26.113281 15.605469 23.359375 15.609375 22.640625 15.628906 Z M 22.640625 15.628906 "/>
<path style=" stroke:none;fill-rule:nonzero;fill:rgb(0%,0%,0%);fill-opacity:1;" d="M 30.054688 15.714844 C 30.046875 15.726562 30.046875 15.757812 30.050781 15.789062 C 30.058594 15.824219 30.054688 15.839844 30.027344 15.847656 C 29.996094 15.859375 29.257812 15.980469 28.964844 16.023438 C 28.890625 16.035156 28.886719 16.03125 28.863281 15.96875 C 28.847656 15.929688 28.824219 15.90625 28.800781 15.90625 C 28.703125 15.90625 28.703125 15.914062 28.792969 16.472656 C 28.847656 16.773438 28.898438 17.023438 28.917969 17.054688 C 28.945312 17.097656 28.960938 17.101562 29.027344 17.089844 C 29.15625 17.070312 29.171875 17.039062 29.105469 16.902344 C 29.054688 16.789062 28.957031 16.398438 28.976562 16.378906 C 28.992188 16.363281 29.445312 16.289062 29.460938 16.300781 C 29.464844 16.308594 29.492188 16.429688 29.515625 16.570312 L 29.5625 16.832031 L 29.632812 16.828125 C 29.671875 16.828125 29.710938 16.816406 29.722656 16.804688 C 29.734375 16.796875 29.722656 16.679688 29.699219 16.535156 C 29.675781 16.394531 29.65625 16.269531 29.65625 16.265625 C 29.65625 16.25 30.0625 16.195312 30.078125 16.210938 C 30.101562 16.234375 30.132812 16.523438 30.125 16.683594 L 30.117188 16.851562 L 30.21875 16.859375 C 30.382812 16.871094 30.382812 16.863281 30.304688 16.367188 C 30.183594 15.632812 30.199219 15.691406 30.128906 15.691406 C 30.09375 15.691406 30.058594 15.703125 30.054688 15.714844 Z M 30.054688 15.714844 "/>
<path style=" stroke:none;fill-rule:nonzero;fill:rgb(0%,0%,0%);fill-opacity:1;" d="M 7.132812 15.75 C 7.117188 15.757812 7.105469 15.847656 7.105469 15.980469 C 7.101562 16.097656 7.09375 16.230469 7.085938 16.277344 C 7.066406 16.382812 7.113281 16.382812 6.429688 16.253906 L 5.917969 16.15625 L 5.929688 16.074219 C 5.945312 16 5.941406 15.988281 5.886719 15.976562 C 5.855469 15.96875 5.820312 15.96875 5.8125 15.980469 C 5.800781 15.992188 5.765625 16.128906 5.738281 16.285156 C 5.679688 16.585938 5.683594 16.628906 5.773438 16.628906 C 5.796875 16.628906 5.820312 16.605469 5.835938 16.566406 C 5.847656 16.527344 5.871094 16.5 5.886719 16.5 C 5.914062 16.5 6.863281 16.683594 6.96875 16.707031 C 7.003906 16.714844 7.015625 16.734375 7.015625 16.792969 C 7.015625 16.851562 7.023438 16.867188 7.070312 16.875 C 7.101562 16.886719 7.132812 16.882812 7.144531 16.871094 C 7.167969 16.847656 7.339844 15.957031 7.339844 15.859375 C 7.339844 15.800781 7.324219 15.773438 7.296875 15.753906 C 7.25 15.730469 7.167969 15.726562 7.132812 15.75 Z M 7.132812 15.75 "/>
<path style=" stroke:none;fill-rule:nonzero;fill:rgb(0%,0%,0%);fill-opacity:1;" d="M 5.628906 17.167969 C 5.621094 17.179688 5.613281 17.332031 5.613281 17.503906 L 5.605469 17.8125 L 5.65625 17.820312 C 5.71875 17.828125 5.746094 17.792969 5.746094 17.710938 C 5.746094 17.65625 5.75 17.65625 5.847656 17.664062 C 5.90625 17.667969 6.128906 17.683594 6.347656 17.695312 C 6.566406 17.707031 6.789062 17.722656 6.835938 17.730469 C 6.921875 17.742188 6.925781 17.746094 6.933594 17.820312 C 6.941406 17.890625 6.945312 17.898438 7.003906 17.898438 C 7.0625 17.898438 7.070312 17.890625 7.082031 17.8125 C 7.089844 17.765625 7.101562 17.617188 7.105469 17.480469 L 7.113281 17.238281 L 7.046875 17.238281 C 6.988281 17.238281 6.980469 17.246094 6.972656 17.3125 L 6.960938 17.386719 L 6.820312 17.378906 C 6.558594 17.367188 5.992188 17.332031 5.882812 17.320312 C 5.773438 17.308594 5.769531 17.308594 5.761719 17.230469 C 5.757812 17.164062 5.75 17.152344 5.695312 17.144531 C 5.664062 17.140625 5.632812 17.148438 5.628906 17.167969 Z M 5.628906 17.167969 "/>
<path style=" stroke:none;fill-rule:nonzero;fill:rgb(0%,0%,0%);fill-opacity:1;" d="M 29.046875 17.433594 C 28.984375 17.449219 28.941406 17.5625 28.929688 17.757812 C 28.910156 18.097656 28.996094 18.390625 29.152344 18.484375 C 29.257812 18.550781 29.4375 18.5625 29.5625 18.515625 C 29.6875 18.46875 29.761719 18.355469 29.851562 18.070312 C 29.925781 17.828125 29.980469 17.757812 30.09375 17.757812 C 30.261719 17.757812 30.304688 17.957031 30.207031 18.261719 L 30.15625 18.425781 L 30.234375 18.457031 C 30.339844 18.5 30.410156 18.472656 30.445312 18.378906 C 30.476562 18.285156 30.480469 17.945312 30.449219 17.804688 C 30.402344 17.582031 30.234375 17.4375 30.007812 17.4375 C 29.777344 17.4375 29.671875 17.542969 29.570312 17.863281 C 29.5 18.09375 29.453125 18.175781 29.371094 18.210938 C 29.214844 18.273438 29.125 18.152344 29.144531 17.902344 C 29.152344 17.824219 29.183594 17.703125 29.210938 17.632812 C 29.257812 17.515625 29.257812 17.503906 29.226562 17.476562 C 29.1875 17.4375 29.101562 17.421875 29.046875 17.433594 Z M 29.046875 17.433594 "/>
<path style=" stroke:none;fill-rule:nonzero;fill:rgb(0%,0%,0%);fill-opacity:1;" d="M 5.578125 18.289062 C 5.542969 18.3125 5.566406 18.792969 5.605469 18.824219 C 5.648438 18.859375 5.722656 18.824219 5.722656 18.769531 C 5.722656 18.742188 5.734375 18.71875 5.742188 18.71875 C 5.769531 18.71875 6.257812 18.855469 6.332031 18.886719 C 6.367188 18.898438 6.386719 18.921875 6.382812 18.933594 C 6.367188 18.957031 5.898438 19.195312 5.816406 19.21875 C 5.78125 19.226562 5.765625 19.222656 5.757812 19.1875 C 5.746094 19.152344 5.730469 19.144531 5.675781 19.148438 L 5.605469 19.15625 L 5.613281 19.328125 C 5.617188 19.421875 5.628906 19.554688 5.632812 19.625 C 5.648438 19.75 5.652344 19.753906 5.714844 19.753906 C 5.765625 19.753906 5.78125 19.742188 5.785156 19.699219 C 5.792969 19.640625 5.824219 19.617188 6.320312 19.320312 C 6.625 19.132812 6.648438 19.125 6.796875 19.109375 L 6.953125 19.097656 L 6.953125 19.160156 C 6.953125 19.253906 6.996094 19.300781 7.066406 19.285156 C 7.109375 19.269531 7.121094 19.257812 7.113281 19.222656 C 7.109375 19.199219 7.097656 19.042969 7.089844 18.886719 C 7.074219 18.578125 7.0625 18.539062 6.976562 18.5625 C 6.9375 18.570312 6.929688 18.589844 6.929688 18.664062 L 6.929688 18.757812 L 6.769531 18.773438 L 6.609375 18.785156 L 6.160156 18.589844 C 5.78125 18.414062 5.714844 18.378906 5.703125 18.335938 C 5.691406 18.28125 5.628906 18.257812 5.578125 18.289062 Z M 5.578125 18.289062 "/>
<path style=" stroke:none;fill-rule:nonzero;fill:rgb(0%,0%,0%);fill-opacity:1;" d="M 22.425781 18.933594 C 22.109375 19.15625 21.835938 19.359375 21.816406 19.378906 C 21.785156 19.410156 21.792969 19.449219 21.996094 20.0625 L 22.210938 20.714844 L 23.441406 20.730469 C 25.0625 20.75 26.105469 20.75 26.101562 20.726562 C 26.101562 20.710938 23.058594 18.539062 23.019531 18.53125 C 23.003906 18.527344 22.738281 18.710938 22.425781 18.933594 Z M 22.425781 18.933594 "/>
<path style=" stroke:none;fill-rule:nonzero;fill:rgb(0%,0%,0%);fill-opacity:1;" d="M 11.734375 19.640625 C 10.914062 20.230469 10.246094 20.71875 10.242188 20.726562 C 10.242188 20.738281 11.078125 20.742188 12.101562 20.742188 L 13.957031 20.742188 L 14.167969 20.085938 C 14.289062 19.726562 14.382812 19.425781 14.382812 19.414062 C 14.386719 19.398438 13.261719 18.570312 13.234375 18.570312 C 13.230469 18.570312 12.554688 19.054688 11.734375 19.640625 Z M 11.734375 19.640625 "/>
<path style=" stroke:none;fill-rule:nonzero;fill:rgb(0%,0%,0%);fill-opacity:1;" d="M 28.953125 18.9375 C 28.933594 18.96875 28.878906 19.550781 28.894531 19.574219 C 28.898438 19.585938 28.933594 19.59375 28.96875 19.59375 C 29.019531 19.59375 29.03125 19.585938 29.03125 19.542969 C 29.035156 19.429688 29.023438 19.429688 29.636719 19.484375 C 29.949219 19.511719 30.210938 19.539062 30.222656 19.542969 C 30.230469 19.546875 30.238281 19.585938 30.238281 19.625 C 30.238281 19.675781 30.246094 19.699219 30.277344 19.710938 C 30.371094 19.738281 30.382812 19.710938 30.410156 19.386719 C 30.4375 19.058594 30.433594 19.03125 30.34375 19.042969 C 30.300781 19.046875 30.289062 19.0625 30.285156 19.117188 C 30.277344 19.203125 30.296875 19.203125 29.648438 19.144531 C 29.050781 19.089844 29.066406 19.09375 29.082031 19.027344 C 29.09375 18.992188 29.085938 18.957031 29.074219 18.941406 C 29.042969 18.902344 28.976562 18.902344 28.953125 18.9375 Z M 28.953125 18.9375 "/>
<path style=" stroke:none;fill-rule:nonzero;fill:rgb(0%,0%,0%);fill-opacity:1;" d="M 30.617188 19.234375 C 30.542969 19.335938 30.59375 19.554688 30.699219 19.578125 C 30.765625 19.597656 30.851562 19.566406 30.871094 19.519531 C 30.894531 19.453125 30.882812 19.285156 30.847656 19.234375 C 30.824219 19.199219 30.792969 19.1875 30.730469 19.1875 C 30.667969 19.1875 30.640625 19.199219 30.617188 19.234375 Z M 30.617188 19.234375 "/>
<path style=" stroke:none;fill-rule:nonzero;fill:rgb(0%,0%,0%);fill-opacity:1;" d="M 8.839844 21.289062 C 8.835938 21.296875 8.875 21.421875 8.929688 21.570312 C 9.546875 23.199219 10.601562 24.640625 11.96875 25.726562 C 12.105469 25.835938 12.226562 25.925781 12.238281 25.925781 C 12.25 25.925781 13.734375 21.457031 13.769531 21.308594 C 13.777344 21.28125 13.398438 21.277344 11.3125 21.277344 C 9.960938 21.277344 8.847656 21.28125 8.839844 21.289062 Z M 8.839844 21.289062 "/>
<path style=" stroke:none;fill-rule:nonzero;fill:rgb(0%,0%,0%);fill-opacity:1;" d="M 14.414062 21.292969 C 14.402344 21.308594 13.410156 24.324219 13.300781 24.671875 C 13.265625 24.777344 13.25 24.851562 13.265625 24.84375 C 13.277344 24.835938 13.957031 24.351562 14.773438 23.765625 C 15.59375 23.179688 16.261719 22.695312 16.261719 22.695312 C 16.265625 22.691406 16.164062 22.375 16.039062 21.988281 L 15.804688 21.289062 L 15.113281 21.28125 C 14.734375 21.277344 14.417969 21.285156 14.414062 21.292969 Z M 14.414062 21.292969 "/>
<path style=" stroke:none;fill-rule:nonzero;fill:rgb(0%,0%,0%);fill-opacity:1;" d="M 20.371094 21.292969 C 20.363281 21.304688 20.273438 21.578125 20.164062 21.90625 C 20.058594 22.234375 19.960938 22.527344 19.949219 22.558594 C 19.929688 22.617188 19.949219 22.632812 21.386719 23.675781 C 22.1875 24.253906 22.847656 24.722656 22.851562 24.714844 C 22.855469 24.695312 21.710938 21.34375 21.683594 21.300781 C 21.664062 21.273438 20.390625 21.265625 20.371094 21.292969 Z M 20.371094 21.292969 "/>
<path style=" stroke:none;fill-rule:nonzero;fill:rgb(0%,0%,0%);fill-opacity:1;" d="M 22.40625 21.3125 C 22.464844 21.53125 23.921875 25.925781 23.9375 25.925781 C 23.949219 25.925781 24.070312 25.835938 24.207031 25.722656 C 25.578125 24.632812 26.625 23.195312 27.246094 21.554688 C 27.292969 21.433594 27.332031 21.320312 27.332031 21.308594 C 27.332031 21.28125 26.933594 21.277344 24.863281 21.277344 C 22.527344 21.277344 22.398438 21.277344 22.40625 21.3125 Z M 22.40625 21.3125 "/>
<path style=" stroke:none;fill-rule:nonzero;fill:rgb(0%,0%,0%);fill-opacity:1;" d="M 17.527344 22.457031 C 17.167969 22.71875 16.992188 22.859375 16.992188 22.882812 C 17 22.9375 18.066406 26.222656 18.078125 26.222656 C 18.089844 26.222656 19.132812 22.902344 19.136719 22.847656 C 19.144531 22.816406 18.121094 22.0625 18.082031 22.066406 C 18.074219 22.066406 17.824219 22.242188 17.527344 22.457031 Z M 17.527344 22.457031 "/>
<path style=" stroke:none;fill-rule:nonzero;fill:rgb(0%,0%,0%);fill-opacity:1;" d="M 14.460938 24.660156 C 13.378906 25.441406 12.492188 26.085938 12.488281 26.09375 C 12.476562 26.117188 12.902344 26.394531 13.238281 26.582031 C 14.511719 27.308594 15.925781 27.734375 17.421875 27.84375 C 17.828125 27.875 17.949219 27.871094 17.949219 27.835938 C 17.949219 27.800781 16.464844 23.273438 16.445312 23.257812 C 16.4375 23.25 15.542969 23.882812 14.460938 24.660156 Z M 14.460938 24.660156 "/>
<path style=" stroke:none;fill-rule:nonzero;fill:rgb(0%,0%,0%);fill-opacity:1;" d="M 19.726562 23.253906 C 19.707031 23.289062 18.226562 27.808594 18.226562 27.835938 C 18.226562 27.867188 18.265625 27.867188 18.523438 27.855469 C 19.609375 27.800781 20.6875 27.574219 21.667969 27.1875 C 21.984375 27.066406 22.679688 26.734375 22.957031 26.574219 C 23.226562 26.417969 23.695312 26.117188 23.695312 26.097656 C 23.691406 26.074219 19.738281 23.242188 19.726562 23.253906 Z M 19.726562 23.253906 "/>
<path style=" stroke:none;fill-rule:nonzero;fill:rgb(0%,0%,0%);fill-opacity:1;" d="M 17.171875 28.957031 C 16.90625 29.03125 16.765625 29.210938 16.765625 29.472656 C 16.765625 29.632812 16.828125 29.75 16.941406 29.808594 C 17.015625 29.84375 17.070312 29.855469 17.226562 29.855469 C 17.335938 29.859375 17.453125 29.851562 17.496094 29.839844 L 17.566406 29.824219 L 17.550781 29.925781 C 17.523438 30.136719 17.414062 30.230469 17.171875 30.25 C 17.074219 30.253906 16.996094 30.25 16.929688 30.226562 C 16.835938 30.191406 16.832031 30.191406 16.808594 30.242188 C 16.78125 30.308594 16.78125 30.378906 16.808594 30.421875 C 16.832031 30.464844 17.152344 30.476562 17.332031 30.445312 C 17.773438 30.359375 17.957031 30.097656 17.957031 29.558594 C 17.957031 29.242188 17.886719 29.085938 17.707031 28.992188 C 17.59375 28.933594 17.316406 28.917969 17.171875 28.957031 Z M 17.488281 29.214844 C 17.539062 29.273438 17.582031 29.4375 17.582031 29.570312 L 17.582031 29.65625 L 17.460938 29.65625 C 17.242188 29.65625 17.144531 29.566406 17.144531 29.367188 C 17.144531 29.257812 17.152344 29.238281 17.207031 29.191406 C 17.285156 29.125 17.417969 29.136719 17.488281 29.214844 Z M 17.488281 29.214844 "/>
<path style=" stroke:none;fill-rule:nonzero;fill:rgb(0%,0%,0%);fill-opacity:1;" d="M 15.777344 28.984375 C 15.605469 29.023438 15.539062 29.066406 15.539062 29.132812 C 15.539062 29.179688 15.546875 29.183594 15.648438 29.191406 C 15.816406 29.199219 15.816406 29.207031 15.8125 29.792969 L 15.808594 30.285156 L 15.679688 30.296875 C 15.550781 30.304688 15.546875 30.304688 15.542969 30.375 L 15.535156 30.445312 L 15.984375 30.441406 L 16.429688 30.433594 L 16.4375 30.363281 L 16.445312 30.296875 L 16.164062 30.296875 L 16.164062 29.671875 C 16.164062 28.953125 16.164062 28.949219 16.003906 28.953125 C 15.957031 28.953125 15.851562 28.96875 15.777344 28.984375 Z M 15.777344 28.984375 "/>
<path style=" stroke:none;fill-rule:nonzero;fill:rgb(0%,0%,0%);fill-opacity:1;" d="M 18.660156 28.976562 C 18.484375 29.007812 18.398438 29.039062 18.378906 29.078125 C 18.34375 29.148438 18.375 29.1875 18.46875 29.1875 C 18.644531 29.1875 18.636719 29.164062 18.636719 29.761719 L 18.636719 30.296875 L 18.511719 30.296875 C 18.40625 30.296875 18.378906 30.300781 18.367188 30.335938 C 18.363281 30.355469 18.363281 30.390625 18.371094 30.410156 C 18.382812 30.441406 18.429688 30.445312 18.828125 30.441406 L 19.273438 30.433594 L 19.273438 30.371094 C 19.273438 30.304688 19.269531 30.304688 19.132812 30.296875 L 18.992188 30.285156 L 18.984375 29.648438 C 18.984375 29.21875 18.972656 29 18.957031 28.980469 C 18.929688 28.949219 18.808594 28.945312 18.660156 28.976562 Z M 18.660156 28.976562 "/>
<path style=" stroke:none;fill-rule:nonzero;fill:rgb(0%,0%,0%);fill-opacity:1;" d="M 20.027344 28.984375 C 19.847656 29.019531 19.773438 29.066406 19.78125 29.128906 C 19.789062 29.167969 19.804688 29.179688 19.902344 29.1875 C 19.96875 29.191406 20.023438 29.210938 20.035156 29.230469 C 20.046875 29.246094 20.058594 29.492188 20.058594 29.777344 L 20.058594 30.296875 L 19.929688 30.296875 C 19.789062 30.296875 19.765625 30.3125 19.785156 30.394531 L 19.800781 30.445312 L 20.242188 30.445312 C 20.648438 30.445312 20.679688 30.441406 20.691406 30.402344 C 20.71875 30.324219 20.683594 30.296875 20.546875 30.289062 L 20.414062 30.285156 L 20.40625 29.644531 C 20.402344 29.074219 20.398438 29.003906 20.363281 28.976562 C 20.320312 28.945312 20.21875 28.949219 20.027344 28.984375 Z M 20.027344 28.984375 "/>
</g>
</svg>
